<?xml version="1.0" encoding="utf-8"?>
<!-- Generator: Adobe Illustrator 16.0.0, SVG Export Plug-In . SVG Version: 6.00 Build 0)  -->
<!DOCTYPE svg PUBLIC "-//W3C//DTD SVG 1.1//EN" "http://www.w3.org/Graphics/SVG/1.1/DTD/svg11.dtd">
<svg version="1.1" id="Layer_1" xmlns="http://www.w3.org/2000/svg" xmlns:xlink="http://www.w3.org/1999/xlink" x="0px" y="0px"
	 width="113.333px" height="178.333px" viewBox="0 0 113.333 178.333" enable-background="new 0 0 113.333 178.333"
	 xml:space="preserve">
<g>
	<g>
		<polygon fill="#D9BB8A" points="43.743,6.857 46.412,15.114 55.086,15.099 48.056,20.183 50.752,28.431 43.743,23.316 
			36.733,28.431 39.436,20.183 32.399,15.099 41.076,15.114 		"/>
		<polygon fill="#D9BB8A" points="71.193,6.857 73.856,15.114 82.536,15.099 75.496,20.183 78.208,28.431 71.193,23.316 
			64.18,28.431 66.878,20.183 59.849,15.099 68.529,15.114 		"/>
	</g>
	<g>
		<path fill="#D9BB8A" d="M5.337,46.715c34.292-17.895,68.637-17.895,102.99,0c0.271,3.166,0.271,53.484,0.163,56.496
			c-1.499,29.866-25.526,55.433-51.766,68.266c-27.47-15.749-51.332-37.89-51.94-68.055C4.731,100.457,4.951,49.982,5.337,46.715z"
			/>
		<g>
			<path fill-rule="evenodd" clip-rule="evenodd" fill="#FFFFFF" d="M8.81,69.882V48.798c31.478-15.787,63.241-16.284,95.313,0
				V69.67C73.254,52.251,41.454,52.861,8.81,69.882z"/>
		</g>
		<g>
			<g>
				<path fill="#ED1C24" d="M40.836,123.031c-4.713-6.008-7.76-13.262-9.354-19.035l-0.018-0.025
					c-2.439-9.582-2.102-17.165-0.108-22.565c-2.401-1.656-4.724-3.371-6.606-4.76c-0.45-0.333-0.872-0.649-1.262-0.935L23.3,99.539
					v0.047c-0.564,14.984,9.675,19.768,16.905,23.153C40.416,122.839,40.623,122.935,40.836,123.031z"/>
			</g>
		</g>
		<g>
			<g>
				<path fill="#ED1C24" d="M81.727,81.405c1.989,5.4,2.325,12.983-0.117,22.565l-0.01,0.025c-1.601,5.773-4.646,13.027-9.35,19.035
					c0.203-0.096,0.416-0.191,0.627-0.292c7.227-3.386,17.464-8.169,16.899-23.153v-0.047L89.595,75.71
					c-0.389,0.285-0.818,0.602-1.265,0.935C86.442,78.034,84.127,79.749,81.727,81.405z"/>
			</g>
		</g>
		<g>
			<path fill="#FFFFFF" d="M68.182,60.807v10.75c2.368-0.203,4.67,0.272,6.737,1.393c2.208,1.198,4.136,3.131,5.589,5.775
				c1.781-1.244,3.527-2.521,5.056-3.647v-9.965C79.686,63.083,73.892,61.652,68.182,60.807z"/>
		</g>
		<g>
			<path fill="#007DC5" d="M48.566,60.199v12.208c2.774,1.047,5.517,3.018,7.972,5.952c2.682-3.205,5.701-5.253,8.733-6.218V60.423
				c-3.457-0.391-6.882-0.565-10.277-0.538C52.836,59.904,50.699,60.011,48.566,60.199z"/>
		</g>
		<g>
			<path fill="#FFFFFF" d="M27.932,64.722v10.662c1.428,1.05,3.016,2.204,4.634,3.341c1.459-2.645,3.385-4.577,5.595-5.775
				c2.288-1.243,4.858-1.688,7.493-1.304V60.509C39.657,61.259,33.75,62.668,27.932,64.722z"/>
		</g>
		<path fill="#007DC5" d="M88.475,115.154v26.604l0.389-0.465l1.663-2.124l1.585-2.174l1.514-2.216l1.433-2.248l1.341-2.291
			l1.257-2.325l1.161-2.36l1.066-2.389l0.967-2.423l0.863-2.459l0.764-2.479l0.659-2.509l0.542-2.53l0.426-2.559l0.313-2.58
			l0.189-2.602c0.026-0.997,0.026-1.998,0.035-2.994c0.047-8.786,0.047-17.567,0.024-26.354c-5.467-3-10.864-5.501-16.191-7.514
			v6.769c0.731-0.533,1.328-0.96,1.761-1.241l2.229-1.457l0.022,2.667l0.203,26.627v-0.046
			C92.953,106.447,91.191,111.434,88.475,115.154z"/>
		<g>
			<path fill="#FFFFFF" d="M68.182,128.616v10.29v3.063v3.794v3.081v11.434l0.704-0.487l2.215-1.597l2.178-1.655l2.135-1.715
				l2.087-1.778l2.036-1.829l1.988-1.884l1.926-1.933l1.874-1.99l0.239-0.271v-26.743c-3.553,3.27-7.849,5.28-11.459,6.968
				c-2.241,1.047-4.19,1.961-5.379,2.951C68.541,128.418,68.364,128.516,68.182,128.616z"/>
		</g>
		<g>
			<path fill="#007DC5" d="M48.566,141.878v20.016l0.207,0.133c2.664,1.731,5.334,3.437,8.078,5.03
				c1.769-0.892,3.485-1.879,5.198-2.866l2.31-1.396l0.912-0.589v-31.935c-2.321,1.303-4.496,2.443-7.253,3.359l-1.48,0.44
				l-1.474-0.44c-2.372-0.785-4.481-1.734-6.498-2.817V141.878z"/>
		</g>
		<g>
			<path fill="#FFFFFF" d="M45.655,142.495v-13.368c-0.436-0.263-0.868-0.536-1.304-0.813c-1.186-0.99-3.138-1.904-5.378-2.951
				c-3.467-1.62-7.567-3.538-11.041-6.585v26.299l1.16,1.184l1.958,1.89l2.016,1.863l2.084,1.822l2.146,1.794l2.196,1.751
				l2.252,1.713l2.299,1.688l1.611,1.128V142.495z"/>
		</g>
		<path fill="#ED1C24" d="M45.322,74.54c-2.04-0.315-4.02,0.017-5.773,0.969c-1.792,0.972-3.366,2.595-4.555,4.841
			c-2.578,4.861-3.339,12.563-0.705,22.902l-0.009-0.025c1.567,5.683,4.615,12.857,9.347,18.647
			c3.083,3.77,6.881,6.933,11.438,8.675V81.17C52.078,77.222,48.614,75.042,45.322,74.54z"/>
		<path fill="#ED1C24" d="M78.801,103.226l-0.012,0.025c2.637-10.339,1.875-18.041-0.701-22.902
			c-1.188-2.246-2.766-3.869-4.555-4.841c-1.316-0.715-2.761-1.08-4.261-1.083c-0.499-0.004-1.006,0.036-1.519,0.114
			c-2.55,0.388-5.201,1.793-7.654,4.238c-0.714,0.708-1.412,1.503-2.083,2.393v49.378c0.001,0,0.001-0.006,0.001-0.006v0.006
			c1.32-0.506,2.569-1.141,3.764-1.864c2.925-1.771,5.483-4.136,7.672-6.811C74.186,116.083,77.233,108.909,78.801,103.226v0.006
			V103.226z"/>
		<g>
			<g>
				<g>
					<path fill="#007DC5" d="M16.941,57.388l1.311,3.123l-2.427,1.019L12.2,52.893l5.455-2.29l0.841,2.005l-3.029,1.27l0.633,1.509
						l2.792-1.173l0.841,2.004L16.941,57.388z"/>
					<path fill="#007DC5" d="M26.115,57.646c-2.801,0.976-4.362-0.281-5.389-3.226c-1.184-3.393-0.134-5.044,2.159-5.845
						c0.651-0.227,1.305-0.373,2.767-0.409l0.247,2.338c-1.246-0.04-1.687-0.021-2.12,0.13c-0.919,0.319-1.217,0.668-0.455,2.853
						c0.795,2.281,1.233,2.332,2.151,2.012c0.47-0.164,0.938-0.529,1.868-1.437l1.236,1.993
						C27.473,57.036,26.814,57.401,26.115,57.646z"/>
					<path fill="#007DC5" d="M35.082,51.962l-0.794,0.197l0.67,2.705l-2.531,0.627l-2.252-9.093l3.386-0.84
						c2.035-0.505,3.503,0.054,4.044,2.237C38.205,50.215,36.881,51.518,35.082,51.962z M33.973,47.59l-0.769,0.19l0.581,2.345
						l0.757-0.188c0.483-0.12,0.679-0.445,0.431-1.45C34.76,47.631,34.419,47.48,33.973,47.59z"/>
					<path fill="#007DC5" d="M47.566,52.422c-0.221,0.075-0.62,0.178-0.898,0.223c-1.047,0.168-1.57-0.099-2.226-1.042l-1.268-1.843
						l-0.606,0.097l0.528,3.283l-2.526,0.406l-1.486-9.257l3.675-0.591c1.882-0.301,3.292,0.25,3.616,2.271
						c0.194,1.212-0.177,2.127-0.947,2.742l1.016,1.326c0.163,0.208,0.209,0.252,0.474,0.209c0.114-0.018,0.212-0.047,0.286-0.071
						L47.566,52.422z M42.901,45.71l-0.972,0.156l0.33,2.058l0.883-0.142c0.582-0.093,0.805-0.479,0.679-1.262
						C43.722,45.903,43.457,45.622,42.901,45.71z"/>
					<path fill="#007DC5" d="M48.967,52.338L48.15,43l2.625-0.229l0.816,9.338L48.967,52.338z"/>
					<path fill="#007DC5" d="M56.184,52.049c-0.857,0.012-1.548-0.031-3.204-0.638l0.586-2.181c2.041,0.615,2.334,0.637,2.885,0.63
						c0.434-0.005,0.712-0.239,0.707-0.699c-0.005-0.371-0.224-0.521-0.596-0.632l-1.502-0.468
						c-1.078-0.333-2.046-1.113-2.064-2.621c-0.023-1.906,1.511-2.998,3.493-3.022c0.715-0.009,1.393,0.06,2.895,0.438l-0.524,2.192
						c-1.602-0.377-2.14-0.446-2.625-0.441c-0.409,0.005-0.676,0.175-0.67,0.647c0.003,0.333,0.248,0.445,0.621,0.568l1.502,0.492
						c1.13,0.357,2.034,1.113,2.052,2.622C59.763,50.958,58.191,52.026,56.184,52.049z"/>
					<path fill="#007DC5" d="M65.919,52.385l0.349-3.701l-2.135-0.202l-0.351,3.7l-2.62-0.247l0.881-9.322l2.62,0.248l-0.322,3.421
						l2.135,0.202l0.326-3.421l2.631,0.249l-0.881,9.321L65.919,52.385z"/>
					<path fill="#007DC5" d="M75.658,46.602l-1.317,7.072l-2.6-0.485l1.315-7.071l-1.972-0.367l0.398-2.135l6.557,1.221
						l-0.397,2.135L75.658,46.602z"/>
					<path fill="#007DC5" d="M77.543,54.371l2.271-9.093l2.554,0.638l-2.27,9.094L77.543,54.371z"/>
					<path fill="#007DC5" d="M86.681,56.997l-0.678-4.729c-0.056-0.367-0.066-0.829-0.019-1.229l-0.133-0.044
						c-0.091,0.361-0.2,0.782-0.312,1.123l-1.328,4.074l-2.262-0.737l2.906-8.914l2.589,0.844l0.598,4.109
						c0.055,0.328,0.071,0.776,0.033,1.222l0.134,0.044c0.078-0.365,0.184-0.773,0.295-1.114l1.155-3.538l2.26,0.736l-2.904,8.914
						L86.681,56.997z"/>
					<path fill="#007DC5" d="M95.133,60.333l0.405-1.999l-2.089-0.904l-1.204,1.653l-2.396-1.036l6.013-7.613l3.263,1.413
						l-1.526,9.553L95.133,60.333z M96.329,54.286c0.08-0.411,0.308-1.065,0.407-1.3l-0.127-0.056
						c-0.103,0.234-0.447,0.838-0.69,1.178l-1.243,1.679l1.256,0.543L96.329,54.286z"/>
				</g>
			</g>
		</g>
		<path fill="#ED1C24" d="M65.64,129.878"/>
		<path fill="none" d="M45.242,162.127c-15.733-10.812-26.689-22.555-32.82-35.129h-0.001
			C18.551,139.573,29.509,151.316,45.242,162.127z"/>
		<g>
			<g>
				<polygon fill="#FFFFFF" points="38.975,153.145 38.975,149.394 41.806,149.394 41.806,145.288 39.331,145.798 38.919,142.167 
					42.85,141.336 45.841,141.336 45.841,149.394 48.131,149.394 48.131,153.145 				"/>
				<path fill="#D9BB8A" d="M39.919,152.198v-1.856h2.831v-6.218l-2.595,0.537l-0.197-1.745l2.992-0.633h1.946v8.059h2.289v1.856
					H39.919z"/>
				<path fill="#FFFFFF" d="M51.437,153.325c-0.57,0-1.35-0.048-2.826-0.386l-0.896-0.206l0.771-3.826l1.016,0.338
					c0.885,0.294,1.641,0.4,1.935,0.4c0.296,0,0.537,0,0.716-0.221c-0.181,0.015-0.359,0.023-0.536,0.023
					c-2.441,0-3.958-1.504-3.958-3.918c0-2.702,1.711-4.372,4.461-4.372c3.043,0,4.46,1.754,4.46,5.524
					C56.581,151.15,54.898,153.325,51.437,153.325z"/>
				<path fill="#D9BB8A" d="M52.121,142.103c2.215,0,3.514,1.026,3.514,4.579c0,4.142-1.478,5.695-4.199,5.695
					c-0.56,0-1.279-0.054-2.612-0.36l0.377-1.875c0.92,0.306,1.785,0.449,2.235,0.449c1.243,0,1.858-0.573,1.983-2.434
					c-0.47,0.198-1.155,0.343-1.803,0.343c-1.643,0-3.01-0.83-3.01-2.971C48.607,143.274,49.975,142.103,52.121,142.103z
					 M52.104,146.916c0.429,0,0.953-0.11,1.351-0.305v-0.63c0-1.84-0.543-2.222-1.371-2.222c-0.885,0-1.35,0.472-1.35,1.712
					C50.734,146.522,51.293,146.916,52.104,146.916z"/>
				<path fill="#FFFFFF" d="M56.671,153.145v-3.138l0.357-0.283c3.606-2.851,3.949-3.422,3.949-4.232c0-0.34,0-0.586-0.767-0.586
					c-0.365,0-0.989,0.068-1.896,0.394l-1.062,0.382l-0.658-3.813l0.808-0.242c1.066-0.315,2.089-0.469,3.116-0.469
					c2.894,0,4.621,1.553,4.621,4.155c0,1.483-0.504,2.604-2.004,4.081h2.158l0.182,3.751H56.671z"/>
				<path fill="#D9BB8A" d="M57.618,152.198v-1.731c3.603-2.847,4.305-3.661,4.305-4.975c0-1.027-0.594-1.533-1.711-1.533
					c-0.575,0-1.318,0.127-2.215,0.45l-0.327-1.874c0.974-0.286,1.911-0.432,2.85-0.432c2.398,0,3.675,1.171,3.675,3.21
					c0,1.478-0.558,2.575-3.461,4.937v0.092h3.66l0.091,1.856H57.618z"/>
				<path fill="#FFFFFF" d="M65.607,153.145v-3.138l0.36-0.283c3.606-2.851,3.949-3.422,3.949-4.232c0-0.34,0-0.586-0.768-0.586
					c-0.365,0-0.989,0.068-1.896,0.394l-1.061,0.382l-0.658-3.813l0.806-0.242c1.07-0.315,2.088-0.469,3.117-0.469
					c2.895,0,4.622,1.553,4.622,4.155c0,1.483-0.507,2.604-2.002,4.081h2.155l0.183,3.751H65.607z"/>
			</g>
			<path fill="#D9BB8A" d="M66.555,152.198v-1.731c3.605-2.847,4.308-3.661,4.308-4.975c0-1.027-0.597-1.533-1.714-1.533
				c-0.576,0-1.315,0.127-2.215,0.45l-0.325-1.874c0.973-0.286,1.908-0.432,2.848-0.432c2.397,0,3.678,1.171,3.678,3.21
				c0,1.478-0.559,2.575-3.465,4.937v0.092h3.662l0.09,1.856H66.555z"/>
		</g>
		<g>
			<path fill="#007DC5" d="M25.024,141.935v-26.231c-2.957-3.772-4.914-8.902-4.632-16.222v0.046l0.205-26.627l0.018-2.667
				l2.226,1.457c0.514,0.332,1.266,0.87,2.184,1.546v-7.43c-5.493,2.155-10.902,4.881-16.235,8.162
				c-0.014,1.245-0.023,2.496-0.026,3.749c-0.057,8.201-0.116,16.403-0.104,24.604c0.005,1.215,0.072,2.422,0.124,3.636l0.24,2.574
				l0.36,2.526l0.48,2.482l0.583,2.438l0.707,2.401l0.807,2.364l0.916,2.323l1.016,2.28l1.117,2.253l1.215,2.218l1.312,2.179
				l1.398,2.141l1.488,2.106L22,138.318l1.652,2.04L25.024,141.935z"/>
		</g>
	</g>
</g>
</svg>
